<svg width="237" height="237" viewBox="0 0 237 237" fill="none" xmlns="http://www.w3.org/2000/svg">
<circle cx="118.5" cy="118.5" r="118" fill="#F7F9FE" stroke="#DAE5F7"/>
<g clip-path="url(#clip0)">
<path d="M104.974 147.658V162.642H142.744C145.753 162.638 148.652 161.508 150.868 159.473L168.54 143.286C171.004 141.115 171.364 137.405 169.362 134.802C168.311 133.53 166.784 132.745 165.138 132.631C163.493 132.518 161.872 133.085 160.657 134.199L148.762 145.091C147.936 145.849 146.83 146.229 145.713 146.135L139.555 145.593" fill="#FCBC04"/>
<path d="M160.636 134.2L148.742 145.092C147.917 145.85 146.811 146.229 145.693 146.135C146.949 146.466 148.248 146.601 149.544 146.535L158.63 138.211C159.847 137.097 161.467 136.53 163.112 136.643C164.758 136.757 166.285 137.541 167.336 138.814C168.363 140.033 168.842 141.621 168.659 143.206C171.051 141.022 171.374 137.371 169.402 134.802C168.35 133.511 166.81 132.714 165.15 132.6C163.489 132.486 161.854 133.065 160.636 134.2V134.2Z" fill="#F9E109"/>
<path d="M106.479 147.578L134.742 153.917C136.89 154.291 139.073 153.473 140.448 151.779C141.822 150.085 142.171 147.779 141.36 145.754L139.555 145.593L106.479 147.578Z" fill="#E59730"/>
<path d="M134.841 138.051L115.084 134.561H104.473V156.625L119.095 147.498L132.736 149.905C135.93 150.3 138.87 148.111 139.406 144.937C139.943 141.764 137.887 138.729 134.741 138.051H134.841Z" fill="#FCBC04"/>
<path d="M134.841 138.051L115.084 134.561H104.473V136.567H111.072L130.83 140.056C132.963 140.443 134.724 141.949 135.438 143.996C136.152 146.043 135.709 148.316 134.28 149.946C137.252 149.653 139.559 147.224 139.7 144.241C139.841 141.258 137.773 138.623 134.841 138.051Z" fill="#F9E109"/>
<path d="M66.3624 126.537H92.4381V170.666H66.3624V126.537Z" fill="#4891D3"/>
<path d="M90.4323 162.642C81.5706 162.642 74.3857 155.458 74.3857 146.596V126.537H66.3624V170.666H92.4381V162.642H90.4323Z" fill="#2D72BC"/>
<path d="M92.4381 130.549H104.974V166.654H92.4381V130.549Z" fill="#F9E109"/>
<path d="M92.4381 158.631H104.974V166.654H92.4381V158.631Z" fill="#FCBC04"/>
<path d="M84.4147 158.631C84.4147 160.846 82.6194 162.642 80.403 162.642C78.1876 162.642 76.3914 160.846 76.3914 158.631C76.3914 156.415 78.1876 154.619 80.403 154.619C82.6194 154.619 84.4147 156.415 84.4147 158.631Z" fill="#57B7EB"/>
<path d="M80.403 162.642C81.6381 162.634 82.7996 162.056 83.5528 161.077C81.1102 159.914 78.9995 158.155 77.4149 155.963C76.7577 156.696 76.3943 157.646 76.3914 158.631C76.3914 160.846 78.1876 162.642 80.403 162.642Z" fill="#4891D3"/>
<path d="M153.195 153.174C147.513 155.457 141.447 156.629 135.323 156.625H104.974V162.642H142.744C145.753 162.638 148.652 161.508 150.868 159.473L161.258 149.945L153.195 153.174Z" fill="#E59730"/>
<path d="M95.1462 82.4094H84.4148L87.4236 86.4211L80.4032 90.4327H106.479C101.384 90.4268 96.8445 87.2134 95.1462 82.4094Z" fill="#FCBC04"/>
<path d="M106.479 66.3629C113.126 66.3629 118.514 71.7506 118.514 78.3978V90.4328H106.479C99.8324 90.4328 94.4437 85.0441 94.4437 78.3978C94.4437 71.7506 99.8324 66.3629 106.479 66.3629ZM106.479 82.4095H110.49V78.3978C110.49 76.1824 108.695 74.3862 106.479 74.3862C104.263 74.3862 102.467 76.1824 102.467 78.3978C102.467 80.6132 104.263 82.4095 106.479 82.4095Z" fill="#FCBC04"/>
<path d="M110.491 82.4094H118.514L110.491 78.3978V82.4094Z" fill="#E59730"/>
<path d="M94.4437 84.4152C94.4535 83.7434 94.5142 83.0725 94.6249 82.4094H95.1459C96.8442 87.2134 101.384 90.4268 106.479 90.4327H96.0685C95.0078 88.6042 94.4476 86.5288 94.4437 84.4152Z" fill="#E59730"/>
<path d="M106.479 66.3629C110.676 66.3658 114.567 68.5548 116.749 72.1394C112.01 69.2707 105.924 70.0072 102.007 73.9249C98.0893 77.8425 97.3518 83.9285 100.222 88.6679C95.6232 85.858 93.4528 80.3351 94.9082 75.1462C96.3636 69.9583 101.091 66.3697 106.479 66.3629Z" fill="#F9E109"/>
<path d="M118.514 90.4327H110.491L118.514 82.4094V90.4327Z" fill="#E59730"/>
<path d="M153.917 82.4094H164.648L161.639 86.4211L168.66 90.4327H142.584C147.68 90.4268 152.219 87.2134 153.917 82.4094Z" fill="#FCBC04"/>
<path d="M142.584 66.3629C135.937 66.3629 130.549 71.7506 130.549 78.3978V90.4328H142.584C149.231 90.4328 154.619 85.0441 154.619 78.3978C154.619 71.7506 149.231 66.3629 142.584 66.3629ZM142.584 82.4095H138.572V78.3978C138.572 76.1824 140.368 74.3862 142.584 74.3862C144.8 74.3862 146.595 76.1824 146.595 78.3978C146.595 80.6132 144.8 82.4095 142.584 82.4095Z" fill="#FCBC04"/>
<path d="M138.572 82.4094H130.549L138.572 78.3978V82.4094Z" fill="#E59730"/>
<path d="M154.619 84.4152C154.61 83.7434 154.549 83.0725 154.439 82.4094H153.917C152.219 87.2134 147.68 90.4268 142.584 90.4327H152.995C154.055 88.6042 154.616 86.5288 154.619 84.4152Z" fill="#E59730"/>
<path d="M142.584 66.3629C138.388 66.3658 134.497 68.5548 132.315 72.1394C137.054 69.2707 143.139 70.0072 147.057 73.9249C150.974 77.8425 151.712 83.9285 148.842 88.6679C153.44 85.858 155.611 80.3351 154.155 75.1462C152.7 69.9583 147.972 66.3697 142.584 66.3629V66.3629Z" fill="#F9E109"/>
<path d="M104.974 130.549V134.561H115.004L134.761 138.05C138.027 138.631 140.207 141.744 139.636 145.011C139.636 145.212 139.636 145.392 139.475 145.593L145.633 146.134C146.75 146.228 147.856 145.849 148.681 145.091L156.624 137.891V90.4326H92.4381V130.549H104.974Z" fill="#A1D51C"/>
<path d="M124.531 74.386C127.855 74.386 130.549 77.0804 130.549 80.4035V90.4326H118.514V80.4035C118.514 77.0804 121.208 74.386 124.531 74.386Z" fill="#FCBC04"/>
<path d="M124.531 74.3861C122.817 74.3841 121.182 75.1138 120.039 76.3919H120.52C123.844 76.3919 126.537 79.0862 126.537 82.4094V90.4327H130.549V80.4035C130.549 77.0804 127.856 74.3861 124.531 74.3861Z" fill="#F9E109"/>
<path d="M132.555 137.65V90.4326H116.508V134.821L132.555 137.65Z" fill="#F9E109"/>
<path d="M132.555 137.65L134.841 138.051C138.107 138.631 140.287 141.744 139.716 145.011C139.716 145.212 139.716 145.392 139.555 145.593L145.713 146.135C146.83 146.229 147.936 145.85 148.762 145.092L156.624 137.891V128.543H132.555V137.65Z" fill="#7AB92D"/>
<path d="M102.467 104.473V90.4326H92.4381V130.549H104.974V134.561H115.004L116.429 134.821V126.337C107.91 122.395 102.46 113.86 102.467 104.473V104.473Z" fill="#7AB92D"/>
<path d="M126.537 128.543C123.074 128.542 119.652 127.79 116.508 126.337V134.821L132.555 137.65V128.543H126.537Z" fill="#FCBC04"/>
<path d="M170.906 133.538C169.536 131.788 167.487 130.702 165.27 130.549C163.074 130.363 160.898 131.088 159.252 132.555L147.378 143.447C146.961 143.831 146.399 144.021 145.833 143.968L141.822 143.607C141.726 139.786 138.948 136.563 135.182 135.905L115.426 132.555C115.312 132.536 115.198 132.536 115.084 132.555H107.061V130.549C107.061 129.442 106.162 128.544 105.055 128.544H94.4439V126.538C94.4439 125.43 93.5467 124.532 92.4381 124.532H66.3623C65.2546 124.532 64.3565 125.43 64.3565 126.538C64.3565 127.645 65.2546 128.544 66.3623 128.544H90.4322V168.66H66.3623C65.2546 168.66 64.3565 169.558 64.3565 170.666C64.3565 171.774 65.2546 172.672 66.3623 172.672H92.4381C93.5467 172.672 94.4439 171.774 94.4439 170.666V168.66H104.974C106.083 168.66 106.98 167.762 106.98 166.654V164.648H142.744C146.257 164.648 149.642 163.331 152.232 160.958L169.884 144.77C173.172 141.902 173.622 136.954 170.906 133.538V133.538ZM102.969 164.648H94.4439V132.555H102.969V164.648ZM167.155 141.822L149.504 158.009C147.658 159.698 145.247 160.635 142.744 160.637H106.98V136.567H114.904L134.56 140.016C136.683 140.433 138.093 142.455 137.75 144.59V144.711C137.683 144.878 137.635 145.053 137.609 145.232C136.954 147.076 135.064 148.178 133.136 147.84L119.397 145.413C118.305 145.218 117.263 145.946 117.07 147.037C116.875 148.129 117.603 149.171 118.695 149.364L132.435 151.791C132.898 151.87 133.368 151.91 133.839 151.911C136.807 151.907 139.531 150.263 140.92 147.639L145.573 148.04C147.225 148.207 148.872 147.685 150.126 146.596L162 135.684C162.799 134.913 163.881 134.505 164.99 134.561C166.093 134.637 167.117 135.167 167.817 136.025C169.171 137.822 168.89 140.364 167.176 141.822H167.155Z" fill="#39519D"/>
<path d="M86.4207 158.631C86.4207 155.308 83.7274 152.614 80.4032 152.614C77.0801 152.614 74.3858 155.308 74.3858 158.631C74.3858 161.954 77.0801 164.648 80.4032 164.648C83.7274 164.648 86.4207 161.954 86.4207 158.631ZM78.3974 158.631C78.3974 157.523 79.2955 156.625 80.4032 156.625C81.5119 156.625 82.4091 157.523 82.4091 158.631C82.4091 159.739 81.5119 160.637 80.4032 160.637C79.2955 160.637 78.3974 159.739 78.3974 158.631Z" fill="#39519D"/>
<path d="M80.4031 92.4373H90.4323V118.513C90.4323 119.621 91.3304 120.519 92.4381 120.519C93.5468 120.519 94.4439 119.621 94.4439 118.513V92.4373H114.502V126.657C114.502 127.764 115.4 128.663 116.508 128.663C117.617 128.663 118.514 127.764 118.514 126.657V92.4373H130.549V129.484C130.549 130.593 131.447 131.49 132.555 131.49C133.663 131.49 134.56 130.593 134.56 129.484V92.4373H154.619V127.178C154.619 128.286 155.517 129.184 156.624 129.184C157.733 129.184 158.63 128.286 158.63 127.178V92.4373H168.659C169.573 92.4432 170.375 91.832 170.611 90.9496C170.847 90.0671 170.458 89.1367 169.662 88.6861L164.648 85.7979L166.293 83.6118C166.754 82.9978 166.824 82.1751 166.473 81.4924C166.124 80.8098 165.416 80.3867 164.648 80.4023H156.484C156.581 79.7383 156.628 79.0674 156.624 78.3965C156.639 71.5054 151.65 65.6231 144.85 64.5114C138.049 63.3998 131.447 67.387 129.266 73.9235C126.446 71.8629 122.618 71.8629 119.798 73.9235C117.617 67.387 111.014 63.3998 104.213 64.5114C97.4135 65.6231 92.4244 71.5054 92.4381 78.3965C92.4342 79.0674 92.4812 79.7383 92.5791 80.4023H84.4148C83.6557 80.4023 82.9613 80.8313 82.6215 81.511C82.2816 82.1907 82.3551 83.0036 82.8105 83.6118L84.4148 85.7979L79.4002 88.6861C78.6059 89.1367 78.2161 90.0671 78.4521 90.9496C78.6882 91.832 79.4903 92.4432 80.4031 92.4373ZM160.636 84.414L160.035 85.2161C159.688 85.6755 159.555 86.2621 159.67 86.8263C159.785 87.3904 160.138 87.8781 160.636 88.1651L161.097 88.4256H152.392C153.585 87.2748 154.558 85.9154 155.261 84.414H160.636ZM132.555 78.3965C132.555 72.857 137.045 68.3674 142.584 68.3674C148.123 68.3674 152.613 72.857 152.613 78.3965C152.616 79.4748 152.44 80.5453 152.092 81.5659V81.7461C150.72 85.6255 147.117 88.2738 143.006 88.4256H132.555V84.414H142.584C145.908 84.414 148.601 81.7196 148.601 78.3965C148.601 75.0734 145.908 72.379 142.584 72.379C139.261 72.379 136.566 75.0734 136.566 78.3965V80.4023H132.555V78.3965ZM140.578 80.4023V78.3965C140.578 77.2888 141.476 76.3907 142.584 76.3907C143.692 76.3907 144.59 77.2888 144.59 78.3965C144.59 79.5042 143.692 80.4023 142.584 80.4023H140.578ZM124.531 76.3907C126.748 76.3907 128.543 78.1869 128.543 80.4023V88.4256H120.52V80.4023C120.52 78.1869 122.316 76.3907 124.531 76.3907ZM106.479 68.3674C112.018 68.3674 116.508 72.857 116.508 78.3965V80.4023H112.496V78.3965C112.496 75.0734 109.803 72.379 106.479 72.379C103.156 72.379 100.461 75.0734 100.461 78.3965C100.461 81.7196 103.156 84.414 106.479 84.414H116.508V88.4256H106.058C101.968 88.2503 98.3958 85.6059 97.0315 81.7461V81.5659C96.6632 80.5492 96.4664 79.4778 96.4497 78.3965C96.4497 72.857 100.94 68.3674 106.479 68.3674ZM108.485 80.4023H106.479C105.371 80.4023 104.473 79.5042 104.473 78.3965C104.473 77.2888 105.371 76.3907 106.479 76.3907C107.588 76.3907 108.485 77.2888 108.485 78.3965V80.4023ZM88.4264 88.1651C88.9259 87.8781 89.2785 87.3904 89.3931 86.8263C89.5087 86.2621 89.3755 85.6755 89.0288 85.2161L88.4264 84.414H93.8024C94.5056 85.9154 95.4782 87.2748 96.6711 88.4256H87.9651L88.4264 88.1651Z" fill="#39519D"/>
</g>
<defs>
<clipPath id="clip0">
<rect width="108.343" height="108.343" fill="white" transform="translate(64.3286 64.3286)"/>
</clipPath>
</defs>
</svg>
